<?xml version="1.0" standalone="no"?>
<!DOCTYPE svg PUBLIC "-//W3C//DTD SVG 1.1//EN" "http://www.w3.org/Graphics/SVG/1.1/DTD/svg11.dtd">
<svg xmlns="http://www.w3.org/2000/svg" id="Layer_1" viewBox="0 0 237.88 57.99" width="237.8800048828125" height="57.9900016784668">
  <defs>
    <style>
      .cls-1 {
        fill: #fff;
      }
    </style>
  </defs>
  <g>
    <path class="cls-1" d="M46.35,43.07v5.55h-1.86l-.08-1.21c-.56.87-1.52,1.37-2.94,1.37-2.77,0-4.77-1.86-4.77-5.27s1.96-5.3,5.11-5.3c2.33,0,3.7.78,4.52,2.63l-2.47.98c-.26-1.04-.99-1.51-1.97-1.51-1.55,0-2.44,1.07-2.44,3.18s.85,3.23,2.52,3.23c1.21,0,2.11-.54,2.11-1.69v-.15h-2.55v-1.8h4.82Z"/>
    <polygon class="cls-1" points="56.57 46.55 56.57 48.62 48.39 48.62 48.39 38.37 56.37 38.37 56.37 40.43 51.06 40.43 51.06 42.51 55.28 42.51 55.28 44.46 51.06 44.46 51.06 46.55 56.57 46.55"/>
    <path class="cls-1" d="M67.72,43.49c0,3.31-1.9,5.28-5.02,5.28s-5.03-1.97-5.03-5.28,1.91-5.28,5.03-5.28,5.02,1.97,5.02,5.28M60.4,43.49c0,2.1.81,3.19,2.3,3.19s2.28-1.09,2.28-3.19-.81-3.19-2.28-3.19-2.3,1.09-2.3,3.19"/>
    <path class="cls-1" d="M73.78,44.88h-1.6v3.74h-2.63v-10.25h4.89c2.47,0,3.87,1.15,3.87,3.26,0,1.49-.7,2.5-2,2.97l2.61,4.02h-2.95l-2.19-3.74ZM72.18,42.98h1.82c1.13,0,1.63-.39,1.63-1.3s-.5-1.29-1.63-1.29h-1.82v2.59Z"/>
    <path class="cls-1" d="M89.36,43.07v5.55h-1.86l-.08-1.21c-.56.87-1.52,1.37-2.94,1.37-2.77,0-4.77-1.86-4.77-5.27s1.96-5.3,5.11-5.3c2.33,0,3.7.78,4.52,2.63l-2.47.98c-.26-1.04-.99-1.51-1.97-1.51-1.55,0-2.44,1.07-2.44,3.18s.85,3.23,2.52,3.23c1.21,0,2.11-.54,2.11-1.69v-.15h-2.55v-1.8h4.82Z"/>
    <polygon class="cls-1" points="99.59 46.55 99.59 48.62 91.4 48.62 91.4 38.37 99.39 38.37 99.39 40.43 94.07 40.43 94.07 42.51 98.3 42.51 98.3 44.46 94.07 44.46 94.07 46.55 99.59 46.55"/>
    <path class="cls-1" d="M109.63,40.06l-1.51,1.74c-.68-1.03-1.55-1.51-2.86-1.51-1.1,0-1.68.43-1.68,1.03,0,.53.48.84,2.05,1.12,2.81.48,3.92,1.38,3.92,3.18,0,2-1.86,3.15-4.34,3.15s-3.7-.62-4.71-1.74l1.38-1.88c.82,1.18,1.82,1.55,3.19,1.55,1.15,0,1.71-.36,1.71-.95,0-.47-.48-.73-2-1.03-2.87-.53-3.98-1.43-3.98-3.19,0-1.93,1.6-3.34,4.41-3.34,1.93,0,3.23.53,4.41,1.85"/>
  </g>
  <g>
    <path class="cls-1" d="M119.3,44.87h-1.6v3.74h-2.63v-10.25h4.89c2.47,0,3.87,1.15,3.87,3.26,0,1.49-.7,2.5-2,2.97l2.61,4.02h-2.95l-2.19-3.74ZM117.7,42.97h1.82c1.13,0,1.63-.39,1.63-1.3s-.5-1.29-1.63-1.29h-1.82v2.59Z"/>
    <rect class="cls-1" x="125.78" y="38.36" width="2.67" height="10.25"/>
    <polygon class="cls-1" points="136.47 48.61 133.34 48.61 129.68 38.36 132.5 38.36 134.38 44.56 134.93 46.58 135.48 44.59 137.39 38.36 140.11 38.36 136.47 48.61"/>
    <polygon class="cls-1" points="149.53 46.55 149.53 48.61 141.34 48.61 141.34 38.36 149.32 38.36 149.32 40.42 144.01 40.42 144.01 42.51 148.24 42.51 148.24 44.45 144.01 44.45 144.01 46.55 149.53 46.55"/>
    <path class="cls-1" d="M155.37,44.87h-1.6v3.74h-2.63v-10.25h4.89c2.47,0,3.87,1.15,3.87,3.26,0,1.49-.7,2.5-2,2.97l2.61,4.02h-2.95l-2.19-3.74ZM153.77,42.97h1.82c1.13,0,1.63-.39,1.63-1.3s-.5-1.29-1.63-1.29h-1.82v2.59Z"/>
  </g>
  <g>
    <polygon class="cls-1" points="172.86 47.44 172.86 48.6 165.77 48.6 165.77 38.39 167.01 38.39 167.01 47.44 172.86 47.44"/>
    <rect class="cls-1" x="174.88" y="38.39" width="1.24" height="10.21"/>
    <path class="cls-1" d="M178.35,38.39h3.64c2.41,0,3.48,1.08,3.48,2.82,0,1.04-.62,1.98-1.72,2.2v.02c1.21.23,1.98,1.21,1.98,2.32,0,1.73-1.35,2.86-3.76,2.86h-3.62v-10.21ZM182,42.87c1.46,0,2.17-.54,2.17-1.67s-.71-1.65-2.17-1.65h-2.41v3.33h2.41ZM182.27,47.44c1.45,0,2.17-.62,2.17-1.7s-.71-1.7-2.17-1.7h-2.68v3.4h2.68Z"/>
    <path class="cls-1" d="M191.35,44.36h-2.44v4.24h-1.24v-10.21h3.87c2.07,0,3.45,1.15,3.45,2.99,0,1.45-.87,2.47-2.26,2.85l2.88,4.38h-1.47l-2.78-4.24ZM188.91,43.2h2.61c1.45,0,2.17-.6,2.17-1.83s-.71-1.83-2.17-1.83h-2.61v3.65Z"/>
    <path class="cls-1" d="M203.68,45.77h-4.63l-1.08,2.83h-1.3l3.98-10.21h1.47l3.96,10.21h-1.31l-1.08-2.83ZM203.24,44.61l-1.38-3.62-.48-1.42h-.03l-.45,1.38-1.39,3.67h3.73Z"/>
    <path class="cls-1" d="M210.99,44.36h-2.45v4.24h-1.24v-10.21h3.87c2.07,0,3.45,1.15,3.45,2.99,0,1.45-.87,2.47-2.26,2.85l2.88,4.38h-1.47l-2.78-4.24ZM208.55,43.2h2.62c1.45,0,2.17-.6,2.17-1.83s-.71-1.83-2.17-1.83h-2.62v3.65Z"/>
    <rect class="cls-1" x="217.52" y="38.39" width="1.24" height="10.21"/>
    <polygon class="cls-1" points="228.35 47.44 228.35 48.6 220.95 48.6 220.95 38.39 228.12 38.39 228.12 39.55 222.19 39.55 222.19 42.84 226.8 42.84 226.8 44 222.19 44 222.19 47.44 228.35 47.44"/>
    <path class="cls-1" d="M237.79,40.4l-1.07.87c-.62-1.35-1.36-1.87-2.86-1.87-1.63,0-2.52.76-2.52,1.73s.68,1.44,2.83,1.81c2.74.46,3.71,1.33,3.71,2.91,0,1.75-1.56,2.91-3.95,2.91-2.17,0-3.59-.94-4.3-2.21l1.07-.87c.54,1.18,1.59,1.92,3.26,1.92,1.58,0,2.63-.59,2.63-1.69,0-.88-.67-1.39-2.82-1.76-2.75-.48-3.74-1.31-3.74-2.88,0-1.64,1.44-3.03,3.81-3.03,1.87,0,3.16.74,3.94,2.17"/>
  </g>
  <g>
    <path class="cls-1" d="M40.94,32.53s-6.16.27-7.61-8.04c0,0-1.07,3.61-5.8,3.34,0,0,4.36,1.92,5.47,3.32,1.11,1.4,4.69,4.85,7.94,1.38"/>
    <path class="cls-1" d="M32.79,17.38s1.39,3.58,2.69,2.79c1.27-.77.1-2.31-1.19-2.69-.99-.29-1.5-.1-1.5-.1M24.4,3.28s-1.61,5.14,3.31,8.41c4.93,3.27,8.55.96,10.13,7.17,1.58,6.21,5.49,5.38,5.49,5.38,0,0,2.34-.61,3.14,1.16.8,1.76-.73,3.36-.73,3.36,0,0-.44-1.07-1.1-.94-.67.13-.45,1.24-.45,1.24,0,0-.94,3.48-4.56,1.8,0,0,1.5-.6.96-1.41-.54-.82-4.66-1.48-5.86-4.55-1.21-3.07-1.25-6.05-4.73-7.83-3.49-1.78-9.08-3.31-9.85-11.68-.77-8.37.29-5.02.63-3.08.37,2.11.46,6.1,3.23,7.17,0,0-2.38-4.76.41-6.22"/>
  </g>
  <g>
    <path class="cls-1" d="M38.74,34.41s-2.05.32-3.85-.87c0,0-1.02.89-.37,3.06,0,0,.53-1.25,1.84-.82,1.31.44,2.38-1.38,2.38-1.38"/>
    <path class="cls-1" d="M22.32,12.61s1.66,2.73,5.3,4.22c3.54,1.45,8.16,6.03,2.75,9.44-5.14,3.24-12.57-7.52-8.06-13.65"/>
    <path class="cls-1" d="M43.35,23.84s-2.11-.39-1.46-7.09c.97-8.2-6.58-6.53-6.38-13.15,0,0-2.31,3.72,3.26,8.08,3.89,3.72-1.5,9.18,4.58,12.16"/>
    <path class="cls-1" d="M15.26,29.53c8.2,3.4,14.3,6.48,15.52,10.57.06-1.48-.2-3.52-1.95-5.53-6.72-7.75-2.33-6.91-2.33-6.91-7.98-4.53-6.4-12.5-6.4-12.5-9.57,1.98-9.55,7.71-8.47,12.22.1.09.2.17.31.25.92.72,2.02,1.37,3.33,1.91"/>
    <path class="cls-1" d="M12.63,30.93c-.47-.22.41.25,0,0"/>
  </g>
  <g>
    <path class="cls-1" d="M12.63,30.93s-.02-.06-.02-.08c-.13-.06-.26-.11-.39-.17l.41.25Z"/>
    <path class="cls-1" d="M7.02,17.14s-1.32,7.32,4.56,11.89c.92.72,2.02,1.37,3.33,1.91,9.14,3.79,15.67,7.18,15.74,12.01,0,.25-.01.5-.03.75-.11.94-.32,1.82-.59,2.63-1.46,4.35-4.75,6.82-4.75,6.82,0,0,5.19-8.34-7.29-12.8C5.86,36.03-.3,27.64,7.02,17.14"/>
    <path class="cls-1" d="M3.05,28.22s-6.48,8.98-.56,15.43c5.92,6.45,21.69,5.37,16.53,14.34,0,0,.04,0,.09-.02,1.77-1.3,6.86-8.22-2.82-11.89-10.67-4.05-11.16-8.19-11.27-8.47,0,0,1.84,4.09,12.05,7.96,9.75,3.69,4.04,10.95,2.05,12.41.74-.21,5.79-1.87,6.12-8.99.39-8.41-18.03-6.26-22.19-20.76"/>
  </g>
</svg>